# xmcd
#
# Track frame offsets:
#	150
#	32200
#	45512
#	73627
#	95336
#	113289
#	131104
#	155099
#	169512
#	197413
#
# Disc length: 2968 seconds
#
# Revision: 0
# Processed by: cddbd v1.5.2PL0 Copyright (c) Steve Scherf et al.
# Submitted via: dBpowerAMP V4.0
#
DISCID=7b0b960a
DTITLE=Ivan Torres - Blues del Sur
DYEAR=2010
DGENRE=Blues
TTITLE0=Blues del Sur
TTITLE1=El Discipulo y es Maestro
TTITLE2=Yo te hago responsable
TTITLE3=No es que quiera recordarte
TTITLE4=Esas locas ganas de soñar
TTITLE5=El yin y el yan
TTITLE6=Hilo curao
TTITLE7=El tour de la locura
TTITLE8=El bar de la calle feliz
TTITLE9=Yo los cago a todos
EXTD=blues del sur , Ivan torres
EXTT0=
EXTT1=
EXTT2=
EXTT3=
EXTT4=
EXTT5=
EXTT6=
EXTT7=
EXTT8=
EXTT9=
PLAYORDER=
